# xmcd
#
# Track frame offsets:
#	150
#	20650
#	38957
#	53687
#	69060
#	90622
#	104316
#	122804
#	137076
#	154533
#	168711
#	186222
#	200325
#	217279
#
# Disc length: 3109 seconds
#
# Revision: 0
# Processed by: cddbd v1.5PL3 Copyright (c) Steve Scherf et al.
# Submitted via: dBpowerAMP V4.0
#
DISCID=c50c230e
DTITLE=Trace Adkins - Greatest Hits Volume 1
DYEAR=1900
DGENRE=Country
TTITLE0=Then They Do
TTITLE1=(This Ain't)No Thinkin' Thing
TTITLE2=The Rest Of Mine
TTITLE3=Chrome
TTITLE4=I'm Tryin'
TTITLE5=Every Light In The House
TTITLE6=Don't Lie
TTITLE7=I Left Something Turned On At Home
TTITLE8=Big Time
TTITLE9=Lonely Won't Leave Me Alone
TTITLE10=Help Me Understand
TTITLE11=More
TTITLE12=Welcome To Hell
TTITLE13=There's A Girl In Texas
EXTD=\n
EXTT0=
EXTT1=
EXTT2=
EXTT3=
EXTT4=
EXTT5=
EXTT6=
EXTT7=
EXTT8=
EXTT9=
EXTT10=
EXTT11=
EXTT12=
EXTT13=
PLAYORDER=
